<?xml version="1.0" encoding="UTF-8" standalone="no"?>
<!-- Created with Inkscape (http://www.inkscape.org/) -->

<svg
   xmlns:dc="http://purl.org/dc/elements/1.1/"
   xmlns:cc="http://creativecommons.org/ns#"
   xmlns:rdf="http://www.w3.org/1999/02/22-rdf-syntax-ns#"
   xmlns:svg="http://www.w3.org/2000/svg"
   xmlns="http://www.w3.org/2000/svg"
   xmlns:sodipodi="http://sodipodi.sourceforge.net/DTD/sodipodi-0.dtd"
   xmlns:inkscape="http://www.inkscape.org/namespaces/inkscape"
   version="1.1"
   id="svg2"
   width="500"
   height="500"
   viewBox="0 0 500 500"
   sodipodi:docname="barrel.svg"
   inkscape:version="0.92.1 r15371">
  <metadata
     id="metadata8">
    <rdf:RDF>
      <cc:Work
         rdf:about="">
        <dc:format>image/svg+xml</dc:format>
        <dc:type
           rdf:resource="http://purl.org/dc/dcmitype/StillImage" />
        <dc:title></dc:title>
      </cc:Work>
    </rdf:RDF>
  </metadata>
  <defs
     id="defs6" />
  <sodipodi:namedview
     pagecolor="#ffffff"
     bordercolor="#666666"
     borderopacity="1"
     objecttolerance="10"
     gridtolerance="10"
     guidetolerance="10"
     inkscape:pageopacity="0"
     inkscape:pageshadow="2"
     inkscape:window-width="1920"
     inkscape:window-height="1017"
     id="namedview4"
     showgrid="false"
     inkscape:zoom="1.5033982"
     inkscape:cx="302.12898"
     inkscape:cy="248.15372"
     inkscape:window-x="1912"
     inkscape:window-y="735"
     inkscape:window-maximized="1"
     inkscape:current-layer="svg2" />
  <g
     id="g4487"
     transform="matrix(1.1942698,0,0,1.1942698,9.5495324,-25.178799)">
    <path
       style="fill:#e6e6e6;fill-opacity:1;stroke-width:1.33333337"
       d="m 184.26667,437.06667 c -0.88,-0.88 -1.6,-3.91944 -1.6,-6.75432 0,-9.62115 -3.47715,-12.30778 -10.91019,-8.4298 -5.85437,3.05434 -11.23609,3.71374 -16.77237,2.05502 -4.4844,-1.34356 -5.85731,-1.21521 -9.76763,0.91315 -11.50487,6.262 -17.07636,5.97811 -32.11338,-1.63631 -11.63249,-5.89042 -31.228596,-20.74218 -32.451313,-24.59462 -0.415038,-1.30767 -4.181478,-5.92747 -8.369867,-10.26623 -20.645455,-21.38663 -22.330511,-24.35195 -23.467856,-41.29813 -0.597197,-8.89812 -1.18654,-44.74848 -0.905277,-55.06906 0.05017,-1.84082 1.640978,-5.0183 3.535137,-7.06106 1.894157,-2.04278 3.99032,-5.6193 4.658137,-7.94784 0.72222,-2.51824 0.756735,-20.18704 0.08517,-43.6056 -0.620971,-21.65452 -0.843791,-45.61044 -0.495156,-53.23538 l 0.633881,-13.8635 -6.015599,-5.52327 -6.015597,-5.52327 -0.973344,-14.28025 c -0.535335,-7.85415 -0.731584,-23.77971 -0.436105,-35.39015 l 0.537233,-21.109879 4.046273,-5.223086 c 2.225451,-2.872697 5.805378,-8.011926 7.955394,-11.42051 2.889773,-4.58138 5.19993,-6.590611 8.859292,-7.70526 4.781621,-1.456494 5.084005,-1.925767 8.880712,-13.782067 2.262669,-7.065831 4.971274,-12.95728 6.38316,-13.883919 C 80.89632,31.546001 89.2,29.563863 98,28.026577 c 13.99252,-2.444374 23.48482,-2.898232 75.65543,-3.617333 40.8644,-0.56326 67.3238,-0.314128 84,0.790912 27.8628,1.846313 52.16758,5.045844 56.97194,7.499899 2.52583,1.290193 4.27403,4.585348 7.49624,14.129577 3.84076,11.376383 4.64694,12.693321 9.37263,15.310869 4.82447,2.672251 7.10835,5.26121 16.10015,18.2507 3.4951,5.049024 3.50076,5.100311 3.22786,29.333329 -0.15034,13.35151 -0.76674,29.56255 -1.36977,36.02454 -0.94297,10.1049 -1.52995,12.05273 -4.19449,13.91904 -7.63578,5.3483 -7.49962,4.81272 -8.42706,33.14813 -0.47736,14.5844 -1.31005,36.71709 -1.85042,49.18376 -1.62431,37.47312 -1.55556,38.56403 2.71042,43.01464 4.76311,4.96927 5.95403,9.50141 5.51435,20.98536 -0.19653,5.13333 -0.71045,19.74259 -1.14205,32.46501 -0.4826,14.22606 -1.4162,24.33439 -2.42498,26.25564 -1.94116,3.69708 -12.73736,16.42242 -20.31584,23.94602 -2.95473,2.93333 -9.13613,7.33166 -13.73646,9.77406 -6.76554,3.59196 -8.51668,5.20294 -9.16179,8.42846 -1.58871,7.94352 -21.57104,19.5502 -43.09283,25.03033 -20.10204,5.11863 -65.70356,8.53025 -69.06666,5.16715 z"
       id="path4495"
       inkscape:connector-curvature="0" />
    <path
       style="fill:#aaaaaa;fill-opacity:1;stroke-width:1.33333337"
       d="m 184.26667,437.06667 c -0.88,-0.88 -1.6,-3.91944 -1.6,-6.75432 0,-9.62115 -3.47715,-12.30778 -10.91019,-8.4298 -5.85437,3.05434 -11.23609,3.71374 -16.77237,2.05502 -4.4844,-1.34356 -5.85731,-1.21521 -9.76763,0.91315 -11.50487,6.262 -17.07636,5.97811 -32.11338,-1.63631 -11.63249,-5.89042 -31.228596,-20.74218 -32.451313,-24.59462 -0.415038,-1.30767 -4.181478,-5.92747 -8.369867,-10.26623 -13.642232,-14.13199 -19.475085,-21.39452 -21.352528,-26.58619 -1.227575,-3.3946 -2.085536,-14.14062 -2.565029,-32.12718 -0.694612,-26.056 -0.630302,-26.99458 1.79091,-26.13788 1.381267,0.48873 4.011394,2.18234 5.844727,3.76358 7.945839,6.85326 31.122659,15.76844 50,19.23298 41.74987,7.66229 48.02985,8.32298 78.66667,8.27621 30.77966,-0.0469 67.45926,-1.87149 70.07065,-3.48541 1.29711,-0.80166 1.234,-1.35447 -0.28463,-2.49319 -1.0732,-0.80473 -2.31796,-2.44196 -2.7661,-3.63829 -0.72995,-1.94856 -4.81888,-2.15462 -39.25071,-1.97795 -37.75608,0.19372 -54.40183,-0.80964 -83.41272,-5.02785 -36.080956,-5.24623 -64.665364,-16.6568 -72.002876,-28.74274 -1.583736,-2.60864 -3.511192,-5.1838 -4.283236,-5.72257 -0.93322,-0.65124 -0.862311,-0.98643 0.21156,-1 3.696899,-0.0467 4.360211,-10.18737 3.234545,-49.44941 -0.618732,-21.58072 -0.837869,-45.52224 -0.486972,-53.20339 l 0.637995,-13.96572 -5.756655,-4.95799 c -5.42293,-4.67056 -5.815128,-5.48416 -6.765286,-14.03428 -1.327508,-11.94573 -1.390462,-55.293411 -0.08329,-57.350035 0.753815,-1.186007 3.106564,-0.617247 8.979583,2.170748 11.707955,5.557908 43.138764,10.350807 84.624802,12.904467 46.45275,2.8594 67.19019,2.89607 68.94057,0.12194 0.55182,-0.87454 1.15896,-5.138997 1.34922,-9.476562 0.34797,-7.93288 3.16522,-12.961844 6.61678,-11.811325 0.83364,0.277881 1.90611,-0.12644 2.38327,-0.898478 0.58508,-0.946693 -3.43853,-1.403712 -12.35838,-1.403712 -18.20179,0 -25.80387,-1.165441 -26.56406,-4.072416 -0.42162,-1.61229 -2.51805,-2.599732 -6.82138,-3.212949 -3.41698,-0.486913 -10.51347,-2.346899 -15.76998,-4.1333 -5.25652,-1.7864 -10.16944,-3.248001 -10.9176,-3.248001 -0.74817,0 -4.119,-1.65 -7.49076,-3.666667 -5.93869,-3.551979 -6.10656,-3.829508 -5.367,-8.872824 0.94255,-6.427587 1.76443,-7.835949 4.059,-6.955439 4.55463,1.747774 92.35962,0.629238 95.34295,-1.214561 1.01317,-0.626176 13.26207,-1.265108 27.21975,-1.419848 13.95769,-0.154741 29.57762,-0.943284 34.71096,-1.75232 C 297.8,41.975973 304.7,40.966 308,40.540623 c 3.3,-0.425378 6.77543,-1.415606 7.72317,-2.20051 2.45474,-2.032957 3.53988,-0.393133 7.27467,10.99322 2.54476,7.758286 4.07088,10.389928 6.80777,11.739422 4.1071,2.025093 4.70663,5.593912 0.93975,5.593912 -1.42339,0 -2.9588,0.6 -3.41203,1.333333 -1.25345,2.028131 5.45132,1.601023 7.15851,-0.456012 0.81676,-0.98414 1.34023,-2.065592 1.16325,-2.403227 -1.06077,-2.023794 5.803,6.35783 10.01158,12.225538 3.40497,4.747306 5.04828,8.512333 5.15132,11.802416 0.38541,12.304595 -0.45334,45.995805 -1.40866,56.583555 -0.91368,10.12626 -1.48838,12.05204 -4.1539,13.91904 -7.63052,5.34462 -7.49512,4.81181 -8.4225,33.14493 -0.47736,14.5844 -1.31005,36.71709 -1.85042,49.18376 -1.62431,37.47312 -1.55556,38.56403 2.71042,43.01464 4.76311,4.96927 5.95403,9.50141 5.51435,20.98536 -0.19653,5.13333 -0.71045,19.74259 -1.14205,32.46501 -0.4826,14.22606 -1.4162,24.33439 -2.42498,26.25564 -1.94116,3.69708 -12.73736,16.42242 -20.31584,23.94602 -2.95473,2.93333 -9.13613,7.33166 -13.73646,9.77406 -6.76554,3.59196 -8.51668,5.20294 -9.16179,8.42846 -1.58871,7.94352 -21.57104,19.5502 -43.09283,25.03033 -20.10204,5.11863 -65.70356,8.53025 -69.06666,5.16715 z M 67.767068,62.333333 c -0.401835,-2.016666 -0.263087,-3.666666 0.308332,-3.666666 0.571417,0 2.630405,-4.778735 4.575529,-10.619412 3.007352,-9.030259 3.871732,-10.44152 5.776163,-9.430664 1.231767,0.653812 3.357149,1.539646 4.723073,1.968522 1.788126,0.56144 2.103895,1.24202 1.127758,2.430664 -0.745658,0.90799 -1.563232,3.15089 -1.816832,4.984223 -0.402835,2.912185 -4.878711,6.347307 -10.901982,8.366992 -0.609157,0.204259 -1.54718,2.455247 -2.084494,5.002193 -0.969499,4.595558 -0.982499,4.602898 -1.707547,0.964148 z M 271.37037,37.432999 c 2.6998,-2.635506 15.30535,-5.316671 15.2849,-3.251058 -0.0107,1.071868 -13.73528,5.897148 -16.61823,5.842591 -0.71296,-0.01349 -0.11293,-1.179683 1.33333,-2.591533 z M 107.34788,35.508847 c -2.43216,-1.77844 -2.43018,-1.85866 0.0785,-3.178495 1.4155,-0.744704 5.13552,-1.778432 8.26672,-2.297175 3.1312,-0.518741 6.58515,-1.835225 7.67544,-2.925518 1.35043,-1.350424 3.25466,-1.702906 5.97358,-1.105732 6.8494,1.50438 4.92988,3.538238 -4.67544,4.953949 -1.46667,0.216169 -3.25895,1.739531 -3.98284,3.385247 -1.01018,2.296564 -2.42334,2.99221 -6.0785,2.99221 -2.61927,0 -5.88513,-0.821018 -7.25745,-1.824486 z M 136,26.666667 c 0,-0.733334 1.35,-1.341527 3,-1.35154 1.65,-0.01 4.35,-0.379992 6,-0.822175 2.20551,-0.591055 3,-0.233127 3,1.35154 C 148,27.51028 146.63683,28 142,28 c -3.3,0 -6,-0.6 -6,-1.333333 z m 127.75,-0.910819 c 0.96249,-0.385161 2.11249,-0.337792 2.55556,0.105267 0.44305,0.443056 -0.34445,0.758188 -1.75,0.700293 -1.55327,-0.06397 -1.8692,-0.379921 -0.80556,-0.805556 z M 243,24.414232 c 1.28333,-0.335369 3.38333,-0.335369 4.66667,0 1.28333,0.335371 0.23333,0.609764 -2.33334,0.609764 -2.56666,0 -3.61666,-0.274393 -2.33333,-0.609764 z"
       id="path4493"
       inkscape:connector-curvature="0" />
    <path
       style="fill:#6e6e6e;fill-opacity:1;stroke-width:1.33333337"
       d="m 184.26667,437.06667 c -0.88,-0.88 -1.6,-3.91944 -1.6,-6.75432 0,-9.62115 -3.47715,-12.30778 -10.91019,-8.4298 -5.85437,3.05434 -11.23609,3.71374 -16.77237,2.05502 -4.4844,-1.34356 -5.85731,-1.21521 -9.76763,0.91315 -11.50487,6.262 -17.07636,5.97811 -32.11338,-1.63631 C 101.47061,417.32399 81.874504,402.47223 80.651787,398.61979 80.236749,397.31212 76.470309,392.69232 72.28192,388.35356 58.639688,374.22157 52.806835,366.95904 50.929392,361.76737 49.7007,358.36968 48.843351,347.60397 48.361543,329.52295 l -0.723304,-27.14371 3.18088,1.67513 c 1.749485,0.92134 4.892401,3.09903 6.984258,4.83934 4.287944,3.56733 11.076306,6.83962 24.40779,11.76562 8.454918,3.12411 49.327773,11.50624 67.788833,13.90202 11.02276,1.43048 76.27976,0.55249 95.18409,-1.28064 8.51542,-0.82572 18.76983,-1.76247 22.78758,-2.08167 4.01774,-0.31919 9.26774,-1.16955 11.66666,-1.88969 8.36207,-2.51024 13.05862,-3.76332 17.50907,-4.67156 3.82423,-0.78044 4.20932,-1.18583 2.62831,-2.76684 -2.61551,-2.61552 -16.64728,-4.95912 -23.77571,-3.97106 -3.3,0.45742 -10.2,1.43575 -15.33333,2.17408 -14.36235,2.06576 -44.87048,3.18634 -74.30068,2.7291 -29.3665,-0.45626 -62.74234,-4.7156 -85.03266,-10.85167 -17.823262,-4.90639 -24.053057,-7.40541 -34.17115,-13.70748 -10.20016,-6.35317 -13.480203,-12.30211 -11.282675,-20.46311 0.986627,-3.66405 1.08057,-17.44492 0.303648,-44.54314 -0.618732,-21.58072 -0.837869,-45.52224 -0.486972,-53.20339 l 0.637995,-13.96572 -5.756655,-4.95799 c -5.42293,-4.67056 -5.815128,-5.48416 -6.765286,-14.03428 -1.493535,-13.43976 -1.380278,-56.107186 0.151445,-57.053843 0.713357,-0.440879 4.535679,0.730536 8.494047,2.603142 13.195237,6.242347 42.981861,10.099861 103.080403,13.349421 6.71264,0.36296 13.70095,1.22876 15.52958,1.924 1.82861,0.69524 3.57101,1.01782 3.872,0.71684 0.30097,-0.30097 12.51266,-0.87303 27.13709,-1.27124 22.66991,-0.61728 49.47689,-1.88081 56.58987,-2.66733 1.1,-0.12164 3.05,-0.32378 4.33333,-0.44921 1.80223,-0.17616 2.33333,-1.46198 2.33333,-5.649058 0,-2.981544 -0.64264,-6.621779 -1.42809,-8.089411 -1.08987,-2.036417 -0.92468,-3.43673 0.6974,-5.912345 l 2.12551,-3.243923 -11.03075,-0.265728 c -26.58576,-0.640442 -25.03073,-0.408452 -25.03073,-3.734272 0,-2.119233 -0.88958,-2.667092 -4.33334,-2.668738 -7.79314,-0.0037 -22.75113,-9.85045 -24.9126,-16.399772 -2.8038,-8.495599 -0.18044,-10.019835 17.9126,-10.407667 5.13334,-0.11004 10.28248,-0.690043 11.44254,-1.288905 2.14942,-1.109604 3.84417,-1.178098 27.22413,-1.10027 20.274,0.06749 52.57223,-3.755554 58.36359,-6.908321 2.65797,-1.446972 2.28313,-2.081385 6.88358,11.650279 2.15806,6.441482 3.99179,9.600336 6.23803,10.745864 4.0138,2.046942 4.10887,4.912485 0.18147,5.470265 -3.51611,0.499367 -3.93035,2.264956 -0.81214,3.461528 1.20334,0.461761 3.72398,-0.166924 5.60143,-1.397077 3.20297,-2.098672 3.49983,-2.095203 4.81213,0.05624 0.76922,1.261082 3.64858,5.314208 6.39858,9.006942 3.47714,4.66916 5.04609,8.196138 5.15132,11.580183 0.38462,12.367836 -0.45275,46.024066 -1.40866,56.618386 -0.91368,10.12627 -1.48838,12.05204 -4.1539,13.91904 -7.63052,5.34463 -7.49512,4.81181 -8.4225,33.14493 -0.47736,14.5844 -1.31005,36.7171 -1.85042,49.18376 -1.62431,37.47312 -1.55556,38.56403 2.71042,43.01464 4.76311,4.96927 5.95403,9.50142 5.51435,20.98536 -0.19653,5.13334 -0.71045,19.74259 -1.14205,32.46502 -0.4826,14.22605 -1.4162,24.33438 -2.42498,26.25564 -1.94116,3.69708 -12.73736,16.42241 -20.31584,23.94601 -2.95473,2.93333 -9.13613,7.33167 -13.73646,9.77407 -6.76554,3.59196 -8.51668,5.20293 -9.16179,8.42845 -1.58871,7.94352 -21.57104,19.5502 -43.09283,25.03033 -20.10204,5.11863 -65.70356,8.53026 -69.06666,5.16715 z M 272,38.7051 c 0,-1.653419 3.48581,-4.108172 4.45601,-3.137976 1.56011,1.560107 0.93764,2.772752 -1.78934,3.485875 C 273.2,39.43654 272,39.279987 272,38.7051 Z M 109,36.414232 c -2.69846,-0.705181 -3.10988,-2.94672 -0.66667,-3.632197 C 109.25,32.524851 112.7,31.581199 116,30.685029 c 3.3,-0.89617 7.2,-2.063437 8.66667,-2.593928 1.46666,-0.53049 4.16666,-0.527816 6,0.006 3.06782,0.893172 2.98,0.98106 -1.10257,1.10338 -3.03519,0.09088 -5.69896,1.395915 -8.43589,4.132852 -3.77055,3.770547 -6.67037,4.507182 -12.12821,3.080899 z m 33,-11.080899 c 3.64184,-1.564952 4.66667,-1.564952 4.66667,0 0,0.733334 -1.65,1.291163 -3.66667,1.23962 -3.24912,-0.08304 -3.363,-0.224204 -1,-1.23962 z"
       id="path4491"
       inkscape:connector-curvature="0" />
    <path
       style="fill:#333333;fill-opacity:1;stroke-width:1.33333337"
       d="m 184.26667,437.06667 c -0.88,-0.88 -1.6,-3.91944 -1.6,-6.75432 0,-9.62115 -3.47715,-12.30778 -10.91019,-8.4298 -5.85437,3.05434 -11.23609,3.71374 -16.77237,2.05502 -4.4844,-1.34356 -5.85731,-1.21521 -9.76763,0.91315 -11.50487,6.262 -17.07636,5.97811 -32.11338,-1.63631 -11.63249,-5.89042 -31.228596,-20.74218 -32.451313,-24.59462 -0.415038,-1.30767 -4.414608,-6.04895 -8.887935,-10.53618 -4.473327,-4.48722 -7.845292,-8.44661 -7.493256,-8.79865 0.352036,-0.35204 5.085165,1.39963 10.518068,3.8926 5.432901,2.49296 13.178003,5.49367 17.211336,6.66823 4.033333,1.17456 11.4386,3.33732 16.45615,4.8061 5.26177,1.5403 17.11217,3.26144 28,4.06671 10.38245,0.76789 22.54636,1.97035 27.03092,2.67212 12.43628,1.94611 23.89062,1.63236 25.83261,-0.7076 0.96495,-1.16269 1.81833,-7.09435 2.06212,-14.33333 0.22876,-6.79239 0.97764,-16.24979 1.6642,-21.01646 0.68655,-4.76666 1.18205,-13.01676 1.10113,-18.33353 C 194.0662,341.68303 194,337.30101 194,337.262 c 0,-0.0391 8.1,-0.34168 18,-0.67259 9.9,-0.3309 23.7,-1.1976 30.66667,-1.92597 6.96666,-0.72839 17.46666,-1.63537 23.33333,-2.01553 5.86667,-0.38016 11.86667,-1.20156 13.33333,-1.82535 1.46667,-0.6238 5.36667,-1.82892 8.66667,-2.67805 13.86033,-3.56647 18.9422,-5.22004 20.34079,-6.61863 0.81478,-0.81479 1.22144,-1.66643 0.90365,-1.89252 -2.18119,-1.55189 -20.18387,-6.28883 -21.29372,-5.60291 -3.37787,2.08764 -30.98539,5.59092 -51.04469,6.47738 -12.90123,0.57012 -14.69534,0.36953 -16.96124,-1.89638 -1.39367,-1.39366 -6.00138,-4.28945 -10.23936,-6.4351 -9.40732,-4.76282 -14.6457,-11.11212 -12.64095,-15.3218 0.74765,-1.57 2.06776,-7.95455 2.93353,-14.18788 1.73475,-12.48954 1.72662,-12.32532 0.88994,-17.97352 -0.32374,-2.18544 -0.0139,-5.48512 0.68852,-7.33263 1.8929,-4.97872 1.69588,-24.16289 -0.305,-29.6962 -1.40787,-3.8934 -2.90795,-5.25609 -7.83958,-7.12155 -3.3542,-1.26876 -7.29856,-3.05736 -8.76522,-3.97465 -1.46667,-0.91729 -4.76667,-2.00335 -7.33334,-2.41345 -7.3879,-1.18044 -14.84446,-2.98163 -21.33333,-5.15323 -5.79585,-1.93967 -15.93564,-4.31139 -32.66667,-7.64079 -15.92092,-3.16818 -42.931149,-9.60822 -54.99613,-13.11269 l -12.329467,-3.58129 -0.0039,-9.14266 c -0.0035,-8.17713 0.242545,-9.04342 2.329466,-8.20302 8.123944,3.27149 49.494161,10.26433 71.752441,12.12838 9.15926,0.76707 50.2899,2.09172 63.74859,2.05311 11.9146,-0.0341 13.92003,-1.91977 13.81575,-12.99015 -0.0409,-4.3422 0.66273,-9.27218 1.56362,-10.95552 1.23934,-2.31572 1.26444,-3.5107 0.1032,-4.90996 -1.00637,-1.2126 -1.25541,-4.74118 -0.72332,-10.2481 0.44635,-4.61931 0.7886,-13.19875 0.76059,-19.06542 -0.028,-5.86666 0.40583,-11.35037 0.96412,-12.18602 1.05936,-1.58568 34.17152,-4.51216 58.34839,-5.15688 19.91673,-0.53112 46.95364,-3.02847 56,-5.17261 9.57032,-2.268341 16.66662,-5.011833 16.66662,-6.443471 0,-0.572558 1.21883,-1.041016 2.70851,-1.041016 4.42159,0 4.68897,-3.899893 0.74805,-10.910612 -4.83774,-8.606142 -3.70905,-11.255474 1.64586,-3.863237 2.73261,3.772259 4.2845,7.540443 4.38224,10.640567 0.38613,12.247549 -0.45387,45.970419 -1.40866,56.552219 -0.91368,10.12626 -1.48838,12.05204 -4.1539,13.91904 -7.63052,5.34462 -7.49512,4.81181 -8.4225,33.14493 -0.47736,14.5844 -1.31005,36.71709 -1.85042,49.18376 -1.62431,37.47312 -1.55556,38.56403 2.71042,43.01464 4.76311,4.96927 5.95403,9.50141 5.51435,20.98536 -0.19653,5.13333 -0.71045,19.74259 -1.14205,32.46501 -0.4826,14.22606 -1.4162,24.33439 -2.42498,26.25564 -1.94116,3.69708 -12.73736,16.42242 -20.31584,23.94602 -2.95473,2.93333 -9.13613,7.33166 -13.73646,9.77406 -6.76554,3.59196 -8.51668,5.20294 -9.16179,8.42846 -1.58871,7.94352 -21.57104,19.5502 -43.09283,25.03033 -20.10204,5.11863 -65.70356,8.53025 -69.06666,5.16715 z m 122.4,-367.03243 c 0,-2.249211 -1.16686,-3.904136 -3.66667,-5.200349 -6.96933,-3.61377 -13.07073,-10.74466 -13.40199,-15.663308 l -0.30924,-4.591772 13.02228,-1.743327 c 7.16226,-0.958829 13.78678,-2.374563 14.72118,-3.146073 2.21365,-1.827786 2.1172,-1.984123 5.94973,9.643922 2.58104,7.830963 4.07708,10.384939 6.89725,11.774698 2.90184,1.430001 3.29635,2.142173 2.03114,3.666666 -0.86362,1.040583 -2.63254,1.89197 -3.93096,1.89197 -1.29842,0 -2.6609,0.782166 -3.02775,1.738149 -0.605,1.576619 -11.74964,4.928517 -16.38669,4.928517 -1.1307,0 -1.89828,-1.334025 -1.89828,-3.299093 z m 32.61184,0.543719 c -0.48338,-0.782123 -0.59291,-1.708 -0.2434,-2.057504 0.34949,-0.349506 0.99074,0.290413 1.425,1.422041 0.90157,2.349476 0.1332,2.762744 -1.1816,0.635463 z"
       id="path4489"
       inkscape:connector-curvature="0" />
  </g>
  <g
     id="g4505"
     transform="matrix(0.21542043,0,0,0.21542043,172.84933,217.86753)"
     style="fill:#ffffff;fill-opacity:0.39393941">
    <g
       id="g4503"
       style="fill:#ffffff;fill-opacity:0.39393941">
      <g
         id="g4501"
         style="fill:#ffffff;fill-opacity:0.39393941">
        <g
           id="g4499"
           style="fill:#ffffff;fill-opacity:0.39393941">
          <path
             id="path4497"
             d="m 99.777,446.086 c -6.699,12.031 -12.031,30.133 -12.031,41.539 0,2.648 0,6.016 0.656,10.688 L 4.676,354.32 C 1.996,349.648 0,342.945 0,336.906 0,330.859 1.996,323.508 4.676,318.828 L 44.871,248.5 0,223.07 146.016,220.367 217,348.281 171.473,322.164 Z M 164.09,40.227 c 12.715,-22.125 33.496,-34.18 58.926,-34.18 27.48,0 48.918,12.742 64.312,38.828 L 310.105,83.047 231.054,219.711 103.14,145.359 Z m 9.351,521.718 c -38.172,0 -69.645,-31.477 -69.645,-69.648 0,-10.719 4.703,-28.82 11.402,-40.195 l 21.41,-38.172 H 295.366 V 561.946 H 173.441 Z M 300.727,36.18 C 290.691,18.789 277.293,6.703 261.215,0 h 164.746 c 14.738,0 26.113,6.047 32.84,17.445 l 40.852,69.648 44.191,-26.141 -71.016,127.281 -145.305,-2.047 44.871,-25.43 z M 554.59,415.273 c 20.07,0 36.832,-5.359 50.887,-16.055 l -83.07,144.648 c -6.699,11.375 -18.73,18.078 -32.789,18.078 h -78.395 v 51.57 L 336.219,488.28 411.223,363.014 v 52.258 H 554.59 Z m 64.258,-120.562 c 6.043,10.719 9.406,22.094 9.406,34.156 0,24.117 -15.422,49.57 -36.832,61.602 -10.062,5.391 -24.145,8.75 -38.172,8.75 h -44.242 l -79,-136.664 127.918,-73.008 z"
             inkscape:connector-curvature="0"
             style="fill:#ffffff;fill-opacity:0.39393941" />
        </g>
      </g>
    </g>
  </g>
  <path
     style="fill:#ffffff;fill-opacity:0.2828283;stroke-width:0.73367888"
     d="m 228.03199,503.26992 c -1.23493,-1.99814 -2.5435,-9.54793 -2.56808,-14.81634 l -0.0261,-5.60274 -2.38446,-0.37979 c -1.55098,-0.24703 -2.66764,-0.0217 -3.19459,0.64435 -0.44556,0.56326 -2.4265,1.75089 -4.40206,2.63913 -3.00341,1.35039 -4.91432,1.61401 -11.66242,1.60887 -5.76504,-0.004 -9.0136,-0.35972 -11.37203,-1.24388 l -3.30155,-1.23775 -9.61725,4.93605 -9.61726,4.93604 -3.9558,-0.98577 c -11.57084,-2.8834 -26.11719,-9.50605 -35.44794,-16.1387 -20.06097,-14.26009 -26.27224,-19.88023 -29.3767,-26.58089 -1.207353,-2.60594 -2.994198,-4.76076 -5.725237,-6.90426 -4.513813,-3.54274 -25.398761,-29.09198 -27.80894,-34.0196 -2.276943,-4.6552 -2.664546,-11.58799 -2.937035,-52.5326 -0.273266,-41.06103 -0.94588,-36.70388 6.921799,-44.83878 l 4.339073,-4.48643 -1.171216,-61.91151 C 74.079993,212.304 73.549507,181.96765 73.545304,178.94123 l -0.0076,-5.5026 -5.151732,-4.36445 c -8.50628,-7.20635 -7.776145,-3.38479 -8.698028,-45.52571 C 59.24659,103.3723 58.887094,84.682474 58.88909,82.015529 l 0.0037,-4.849001 9.81132,-14.226651 c 10.180212,-14.761678 11.4801,-16.065198 18.142506,-18.193314 2.630767,-0.840319 2.662991,-0.902249 7.586695,-14.579557 2.719593,-7.554611 5.491784,-14.34723 6.160429,-15.09471 1.87831,-2.099767 4.6744,-3.299625 11.42594,-4.90311 20.62731,-4.8989722 58.87388,-7.765617 113.78498,-8.528379 82.63498,-1.14786998 159.29571,5.3605515 167.01863,14.179717 0.64755,0.739475 3.36942,7.594743 6.0486,15.233925 2.67917,7.639182 4.94895,13.939151 5.04396,13.999922 0.0951,0.06075 2.09297,0.873526 4.43986,1.806119 2.34689,0.932594 5.15322,2.590877 6.23627,3.685064 1.08306,1.094194 5.93107,7.846094 10.77334,15.004225 l 8.80415,13.014788 -0.13977,5.617332 c -0.4694,18.866151 -2.5554,75.007561 -2.86662,77.151041 -0.29912,2.06017 -1.66715,3.80136 -6.91926,8.80672 l -6.54647,6.23885 -2.21886,61.61375 c -1.22045,33.88756 -2.21892,64.21658 -2.21892,67.39781 v 5.78407 l 4.04155,4.36535 c 4.38549,4.73685 6.13678,7.61846 7.05285,11.60487 0.7334,3.19148 -2.01621,77.30847 -3.03691,81.86328 -1.051,4.68965 -3.17162,7.73301 -15.79692,22.67026 -12.43409,14.71112 -16.38356,18.09906 -28.03658,24.05026 l -7.52946,3.84525 -1.45025,4.03523 c -2.41836,6.72879 -3.05865,7.48329 -11.39514,13.42733 -19.42334,13.84922 -42.1084,21.25483 -77.01185,25.14079 -13.83418,1.54023 -51.30236,2.3269 -52.06487,1.09316 z m 53.16538,-3.28542 c 20.07845,-2.40477 37.46128,-6.39634 51.60537,-11.85005 8.41683,-3.24539 12.60585,-5.60131 22.92284,-12.89182 l 8.19673,-5.79222 2.1309,-5.66194 2.1309,-5.66194 6.6056,-3.35109 c 10.60218,-5.37862 16.1099,-9.42861 21.96363,-16.1505 7.67201,-8.80983 18.14462,-21.42487 19.74931,-23.78959 3.57192,-5.26349 3.49173,-4.44969 5.26108,-53.41976 1.37234,-37.9839 1.58451,-36.46852 -6.22343,-44.43771 l -4.68917,-4.78604 0.50095,-15.08437 c 0.27557,-8.2964 1.31218,-37.70001 2.30361,-65.34136 0.99134,-27.64136 1.80302,-51.68834 1.80368,-53.43774 0,-2.76076 0.36009,-3.48734 2.71871,-5.5026 7.87767,-6.73091 10.46835,-9.55272 10.8035,-11.76742 0.40536,-2.67871 0.8587,-13.13698 1.86443,-43.01247 0.40074,-11.90394 0.90602,-24.424182 1.1229,-27.822758 0.37439,-5.867363 0.32883,-6.121524 -0.90361,-5.035973 -6.96914,6.138567 -33.73103,12.415 -68.06273,15.962631 -4.43876,0.45867 -9.06093,0.96281 -10.27151,1.12029 -5.02466,0.6537 -41.58014,2.73298 -57.59379,3.27595 -17.58202,0.59615 -90.46331,0.40769 -92.4499,-0.23906 -0.60179,-0.19592 -6.21157,-0.54786 -12.46618,-0.78208 -31.00365,-1.16104 -69.83593,-5.045526 -92.076704,-9.210665 -10.675351,-1.999216 -16.25795,-3.392913 -24.156503,-6.03065 -6.732311,-2.248271 -9.053767,-3.410939 -12.058768,-6.039468 l -1.732363,-1.515326 0.438865,8.070468 c 0.24138,4.438757 0.631763,21.441771 0.867531,37.784461 0.23576,16.3427 0.738939,30.72047 1.11817,31.95059 0.616093,1.99844 8.010109,10.2267 8.010109,8.91387 0,-0.29328 1.898394,0.42319 4.218654,1.59215 10.948844,5.51613 36.712169,11.74592 64.013479,15.47901 34.4448,4.70986 75.19485,7.10017 119.03941,6.9826 12.18288,-0.0326 20.35959,0.22098 20.35959,0.63156 0,0.67415 -76.34502,0.14999 -82.53888,-0.56667 -1.6141,-0.18676 -8.05213,-0.69991 -14.30674,-1.14035 -41.15668,-2.8981 -75.87532,-8.68904 -98.679811,-16.45938 -4.035234,-1.37496 -7.342322,-2.44642 -7.349086,-2.38102 -0.06134,0.59275 1.216499,85.37664 1.688071,112.00493 0.685366,38.70009 0.410325,37.01624 7.045276,43.13212 14.738098,13.58511 46.39607,23.59232 95.46136,30.17568 33.10398,4.44176 88.0419,5.12118 123.25805,1.52431 13.3377,-1.36225 20.42606,-2.2917 30.81452,-4.04049 21.5243,-3.62338 25.91229,-4.12252 27.50386,-3.12859 0.81203,0.50714 1.47646,1.17281 1.47646,1.47928 0,1.02481 -2.24148,0.57185 -2.66781,-0.53912 -0.23133,-0.60297 -0.72165,-0.91031 -1.08945,-0.68298 -0.36778,0.22733 -0.48114,0.71688 -0.25186,1.08789 0.22934,0.37102 -0.0235,0.5056 -0.56164,0.29906 -0.53822,-0.20653 -7.40611,0.63539 -15.26198,1.87094 -35.00889,5.50611 -53.76201,7.17808 -85.58878,7.63082 -20.18659,0.28716 -51.83147,-1.08121 -67.35987,-2.91271 -35.94041,-4.23902 -54.28417,-7.91439 -75.56893,-15.14107 -23.696697,-8.04558 -37.147079,-18.36262 -38.077244,-29.20695 -0.19036,-2.21938 -0.367441,-4.5127 -0.393509,-5.09626 -0.06046,-1.35394 -4.560724,2.89855 -7.417215,7.00885 -1.151692,1.65723 -2.486019,4.57003 -2.965162,6.47291 -0.790122,3.13782 -0.709527,3.81324 0.866071,7.25838 3.715042,8.12315 9.398485,13.12808 22.457926,19.77681 18.339253,9.33678 45.038503,16.47814 81.288723,21.74265 38.0337,5.52354 96.7217,6.50299 138.29849,2.30811 24.12395,-2.43399 45.30562,-6.26207 67.13161,-12.13243 10.36982,-2.78908 11.98032,-3.05654 9.15881,-1.52099 -7.64288,4.15948 -35.1546,10.2439 -63.08421,13.95156 -32.41936,4.30367 -88.87016,5.1446 -125.09225,1.86346 -41.15886,-3.72835 -70.18164,-9.66339 -98.665514,-20.17671 -5.623928,-2.07576 -17.536378,-8.48528 -21.983485,-11.82823 -4.025887,-3.0263 -8.793171,-8.14796 -9.822339,-10.55246 -0.259077,-0.60528 -0.314389,4.18197 -0.122921,10.63835 0.191461,6.45637 0.556656,21.96952 0.811536,34.47367 0.30191,14.81133 0.783951,23.79985 1.383118,25.79072 0.919006,3.05362 7.539204,13.29489 9.75374,15.08878 0.989131,0.80124 1.070643,0.77766 0.522255,-0.15108 -0.357397,-0.60529 0.81731,0.0904 2.610465,1.54602 5.864112,4.76024 16.329763,10.24019 30.406395,15.92119 4.33897,1.75112 20.88769,6.67705 29.714,8.84473 15.8232,3.88609 45.76504,8.52862 64.1969,9.95384 17.02833,1.31669 36.07631,1.99381 49.86045,1.77247 8.69226,-0.13959 15.80411,-0.006 15.80396,0.29647 -2.9e-4,1.04787 -42.87275,0.87636 -58.32762,-0.23334 -27.67665,-1.98726 -58.23118,-6.51265 -76.2222,-11.28918 -14.38544,-3.81927 -27.52132,-8.28573 -36.874687,-12.53816 -6.351209,-2.88752 -15.375423,-8.0333 -17.809505,-10.15534 -0.978397,-0.85295 1.002535,1.74144 4.402073,5.76532 7.275446,8.61163 7.401206,8.74313 11.794865,12.33192 2.133774,1.74289 3.960934,4.08794 4.917294,6.31104 2.30438,5.35667 7.14517,10.19449 19.02714,19.01545 13.19855,9.79835 17.89886,12.82917 24.70872,15.93252 7.07958,3.22627 18.58944,7.13417 19.44847,6.60325 0.38126,-0.23563 1.32407,-0.0344 2.09513,0.4471 1.18818,0.74203 2.53021,0.29595 8.80233,-2.92582 4.07024,-2.09074 8.38012,-4.3636 9.57752,-5.05082 2.07018,-1.18812 2.36902,-1.17832 6.0845,0.19937 5.38646,1.99731 16.36529,2.02044 21.4867,0.0453 3.0281,-1.16784 3.3978,-1.49807 2.20104,-1.96605 -0.7911,-0.30936 -2.53085,-0.58567 -3.86611,-0.61402 -1.33527,-0.0284 -2.26865,-0.30902 -2.07419,-0.62366 0.19446,-0.31465 3.68058,-0.4847 7.74693,-0.37787 6.13668,0.1612 7.39336,0.009 7.39336,-0.89527 0,-0.59923 -0.64083,-1.08949 -1.42406,-1.08949 -0.78323,0 -1.64261,-0.35361 -1.90971,-0.78579 -0.31778,-0.51419 0.36463,-0.70438 1.97431,-0.55026 1.35299,0.12954 2.48037,0.56568 2.50531,0.96921 0.47448,7.67327 1.28439,15.63935 1.96722,19.35 l 0.86068,4.67644 20.94059,-0.38553 c 12.12683,-0.22326 25.10943,-0.88481 30.84525,-1.57179 z m -118.55885,-11.6142 -1.39765,-1.65078 1.65078,1.39766 c 0.90793,0.7687 1.65078,1.51155 1.65078,1.65077 0,0.58713 -0.59046,0.15368 -1.90391,-1.39765 z m 19.5122,-11.22383 c -2.62291,-0.54884 -5.75938,-1.34335 -6.96995,-1.7656 -1.97545,-0.68903 -1.86265,-0.72611 1.10052,-0.3617 5.91657,0.7276 13.07342,2.15201 13.63518,2.71377 0.79305,0.79304 -2.28316,0.56073 -7.76575,-0.58647 z m -27.70585,-4.70733 c -0.41339,-1.62859 -0.49975,-2.96107 -0.19193,-2.96107 0.56228,0 1.6565,5.20916 1.19182,5.67384 -0.13657,0.13656 -0.58651,-1.08419 -0.99989,-2.71277 z m 9.36388,-0.73058 c 0,-0.65941 -2.70768,-1.58478 -7.60679,-2.59968 -1.1573,-0.23974 -1.9269,-0.61319 -1.71021,-0.82988 0.2167,-0.21668 3.54683,0.1431 7.40031,0.79951 10.32884,1.75946 15.80808,3.89807 6.88457,2.68712 -2.28968,-0.31072 -3.99448,-0.29221 -3.78849,0.0411 0.20601,0.33336 0.0249,0.60607 -0.40241,0.60607 -0.42734,0 -0.77698,-0.3169 -0.77698,-0.70422 z m 108.12416,-12.35074 c 0.19392,-0.31373 2.93333,-0.66652 6.08763,-0.78399 3.15431,-0.11748 5.57215,-0.0692 5.37302,0.10718 -0.67116,0.5947 -11.8167,1.25289 -11.46065,0.67681 z m 20.13208,-1.38612 c 0.52964,-0.21194 1.16245,-0.18587 1.40624,0.0579 0.2438,0.24379 -0.18958,0.41719 -0.96295,0.38533 -0.85474,-0.0352 -1.02854,-0.20905 -0.44329,-0.44326 z m 92.58111,-98.58877 c 0,-0.42733 0.33016,-0.57293 0.73368,-0.32353 0.40352,0.24939 0.73368,0.59903 0.73368,0.77698 0,0.17794 -0.33016,0.32354 -0.73368,0.32354 -0.40352,0 -0.73368,-0.34965 -0.73368,-0.77699 z m -6.16665,-0.50696 c -0.29794,-0.30264 -1.59105,-0.93782 -2.87359,-1.41154 -2.15511,-0.79601 -2.19283,-0.86427 -0.49759,-0.90078 1.00881,-0.0217 2.65959,0.60613 3.6684,1.39522 1.00881,0.78911 1.47653,1.44208 1.0394,1.45105 -0.4372,0.009 -1.03866,-0.2313 -1.33662,-0.53395 z m -11.80849,-3.85181 c -0.24937,-0.40352 -0.12325,-0.73368 0.28027,-0.73368 0.40353,0 0.93772,0.33016 1.18709,0.73368 0.24938,0.40353 0.12326,0.73368 -0.28026,0.73368 -0.40352,0 -0.93771,-0.33015 -1.1871,-0.73368 z M 193.88959,225.163 c -0.66127,-0.42734 -0.75176,-0.7157 -0.22673,-0.72245 0.48059,-0.006 1.07785,0.31892 1.32724,0.72245 0.56296,0.91088 0.30897,0.91088 -1.10051,0 z m -18.70882,-3.6684 c -0.24939,-0.40352 -0.1038,-0.73368 0.32354,-0.73368 0.42734,0 0.77698,0.33016 0.77698,0.73368 0,0.40352 -0.14559,0.73368 -0.32354,0.73368 -0.17794,0 -0.52758,-0.33016 -0.77698,-0.73368 z m -3.17927,-0.73368 c 0.1345,-0.40352 0.57471,-0.73368 0.97824,-0.73368 0.40352,0 0.84372,0.33016 0.97823,0.73368 0.13451,0.40352 -0.3057,0.73368 -0.97823,0.73368 -0.67255,0 -1.11275,-0.33016 -0.97824,-0.73368 z m -5.25804,-1.8342 c -0.50234,-0.60528 -0.74826,-1.10051 -0.54651,-1.10051 0.20176,0 0.77785,0.49523 1.28019,1.10051 0.50234,0.60529 0.74828,1.10052 0.54651,1.10052 -0.20176,0 -0.77784,-0.49523 -1.28019,-1.10052 z m -12.78697,-0.78608 c -1.32467,-1.32467 -1.50589,-2.51547 -0.38281,-2.51547 1.32805,0 5.09932,2.20343 5.09932,2.97937 0,0.49193 -0.47658,0.4856 -1.41913,-0.0188 -1.79077,-0.9584 -2.46451,-0.96764 -1.88242,-0.0258 0.68969,1.11594 -0.11954,0.87618 -1.41496,-0.41925 z m -9.49977,-2.37605 c -1.96786,-0.12508 -4.36149,-0.74082 -5.31917,-1.36831 -1.40562,-0.921 -1.74554,-0.94788 -1.76355,-0.13942 -0.015,0.6722 -0.26819,0.57933 -0.77014,-0.28246 -0.4113,-0.70617 -1.55681,-1.28395 -2.54556,-1.28395 -0.98876,0 -1.79774,-0.30037 -1.79774,-0.66749 0,-0.36713 1.89839,-0.19616 4.21865,0.37993 2.32025,0.57608 6.19958,1.42585 8.62072,1.88835 4.36099,0.83307 6.66223,1.77747 4.20817,1.72697 -0.70039,-0.0144 -2.88352,-0.12854 -4.85138,-0.25362 z m -14.98415,-3.22087 c -1.20061,-1.20062 -1.10961,-2.09619 0.16338,-1.60771 1.13827,0.43681 2.19435,2.48812 1.28096,2.48812 -0.31016,0 -0.96011,-0.39618 -1.44434,-0.88041 z m -4.06886,-1.08523 c -0.27405,-0.27406 -1.89241,-0.62822 -3.59635,-0.78704 -1.70395,-0.15881 -3.43314,-0.54719 -3.84265,-0.8631 -1.20698,-0.93105 -4.04613,-1.43877 -4.04613,-0.72355 0,0.61547 -4.70016,-0.82743 -7.46789,-2.29256 -0.75511,-0.39974 -1.32503,-0.37173 -1.47307,0.0723 -0.13278,0.39838 -0.81341,0.0564 -1.51249,-0.76014 -1.17123,-1.36787 -1.17487,-1.48446 -0.0464,-1.48446 1.19941,0 5.01744,1.08839 7.93196,2.26112 0.80704,0.32473 2.95306,0.81231 4.76891,1.08349 1.81585,0.27118 3.63171,0.69386 4.03523,0.93928 0.76597,0.46588 1.215,0.55542 3.71159,0.74012 1.96805,0.14559 4.9138,2.25497 3.19722,2.28945 -0.63891,0.0129 -1.38588,-0.2009 -1.65995,-0.47495 z m -25.425027,-6.14813 c 0,-0.42734 -0.314976,-0.58231 -0.699937,-0.34438 -1.374973,0.84978 -4.435815,-0.46938 -4.435815,-1.91173 0,-1.32151 0.131035,-1.3389 2.164602,-0.2873 1.190533,0.61564 2.676233,1.11936 3.301557,1.11936 0.62532,0 1.13695,0.49523 1.13695,1.10051 0,0.6053 -0.33016,1.10052 -0.73368,1.10052 -0.40352,0 -0.733677,-0.34964 -0.733677,-0.77698 z m -10.779328,-3.06028 c -2.169415,-0.69726 -3.985887,-2.76584 -2.428756,-2.76584 1.193043,0 5.871295,2.44665 5.871295,3.0706 0,0.71317 -0.38017,0.67952 -3.442539,-0.30476 z m -5.911867,-1.81626 c -1.040056,-0.20033 -1.650777,-0.84821 -1.650777,-1.7512 0,-1.36017 0.09352,-1.37196 1.834197,-0.23143 1.008808,0.66099 1.834197,1.49399 1.834197,1.85111 0,0.3571 -0.08253,0.60433 -0.18342,0.54938 -0.100881,-0.055 -0.926269,-0.24299 -1.834197,-0.41786 z m -5.333889,-2.80151 c -0.510436,-0.61504 -0.723915,-1.3224 -0.474405,-1.57191 0.532864,-0.53287 2.690159,1.10812 2.690159,2.04631 0,1.01061 -1.195787,0.75458 -2.215754,-0.4744 z m 204.429251,-4.88863 c 0.20264,-0.32793 2.41248,-0.57017 4.91066,-0.53831 5.32688,0.0679 4.81587,0.46562 -1.10213,0.85776 -2.29737,0.15224 -4.01124,0.008 -3.80853,-0.31945 z m 10.41582,-0.36374 c 0.52964,-0.21193 1.16245,-0.18588 1.40625,0.0579 0.24379,0.2438 -0.18959,0.41719 -0.96296,0.38534 -0.85474,-0.0352 -1.02854,-0.20905 -0.44329,-0.44326 z m 10.77591,-88.63608 c 68.97514,-3.58551 110.20356,-9.634588 124.52072,-18.269813 5.54933,-3.347006 5.34434,-4.333569 -3.7136,-17.877187 -4.06729,-6.08142 -7.70098,-11.246219 -8.07494,-11.477335 -0.37395,-0.231108 -1.10924,0.09716 -1.63404,0.729475 -2.921,3.519604 -15.59993,7.284434 -34.06185,10.114189 -15.68679,2.404391 -44.38758,5.040514 -44.38758,4.076922 0,-0.256986 3.54837,-0.696657 7.88529,-0.977041 4.33685,-0.28039 8.13437,-0.758916 8.43884,-1.063401 0.30448,-0.304477 -1.67565,-0.31824 -4.40031,-0.03059 -2.72459,0.28766 -11.4558,0.944289 -19.40265,1.459162 -8.2847,0.53676 -14.27218,1.221928 -14.03476,1.606031 0.22766,0.368439 -0.20367,0.343875 -0.95848,-0.05458 -0.88115,-0.465123 -5.57494,-0.503406 -13.11135,-0.106956 -12.34774,0.649556 -28.70482,0.882843 -28.18552,0.401998 0.16815,-0.155672 5.91836,-0.491852 12.77826,-0.747062 20.25827,-0.753671 56.52042,-3.012206 60.16166,-3.747081 0.80705,-0.162884 3.77845,-0.48764 6.60312,-0.72169 10.91075,-0.904054 25.25829,-3.204659 36.63456,-5.874289 9.22976,-2.165908 18.7582,-6.997844 18.7582,-9.512374 0,-0.550846 -1.24212,-1.985299 -2.76026,-3.187688 -2.08247,-1.649348 -3.14498,-3.330896 -4.32723,-6.848174 -1.72179,-5.122458 -5.57529,-16.015895 -6.75029,-19.082277 l -0.7463,-1.947705 -2.83904,1.404615 c -8.55939,4.234881 -44.53783,8.56821 -81.25669,9.786762 -24.44516,0.811237 -43.25302,1.039903 -41.08603,0.499533 1.21058,-0.301879 6.82322,-0.622542 12.47255,-0.712579 43.50232,-0.693355 91.39386,-5.272355 105.90963,-10.126206 4.39554,-1.469808 7.12109,-3.85483 5.8081,-5.08248 C 385.78528,10.738616 345.02788,5.6651312 288.53416,3.519656 263.39715,2.5650224 197.11818,3.0160221 175.91445,4.2859762 131.71107,6.9334565 104.02487,11.298288 101.06582,16.086138 c -0.26388,0.426972 -0.0745,1.264635 0.42083,1.861482 0.72599,0.874765 0.70267,1.010233 -0.12026,0.698654 -0.75427,-0.285585 -2.283492,3.082023 -5.85584,12.895595 l -4.834967,13.28212 -3.860522,1.306909 c -2.123289,0.718807 -4.734805,1.953126 -5.803372,2.742939 -2.368271,1.750463 -20.650537,27.981244 -20.651197,29.629645 -7.34e-4,2.683702 7.543972,7.973732 13.57259,9.516102 1.21057,0.309714 5.172436,1.375537 8.804147,2.368491 18.134151,4.958092 56.024781,10.025105 88.408311,11.822615 18.58328,1.03151 24.86052,1.34327 37.41762,1.85834 14.07429,0.57732 82.13074,0.34438 95.01142,-0.32519 z m 28.10907,-32.420938 c 0.52964,-0.211937 1.16245,-0.185878 1.40625,0.05788 0.24379,0.243794 -0.18959,0.4172 -0.96296,0.385343 -0.85474,-0.03521 -1.02854,-0.209055 -0.44329,-0.44326 z M 87.951477,54.522644 c -0.651653,-1.698181 -0.524381,-4.182843 0.278783,-5.442585 0.481705,-0.755542 0.5634,-0.240023 0.260618,1.644571 -0.277727,1.728606 -0.100925,3.154893 0.477471,3.851814 0.527126,0.635153 0.601052,1.106726 0.173478,1.106726 -0.409759,0 -0.945418,-0.522233 -1.19035,-1.160526 z M 249.46576,32.453223 c 0.5044,-0.203531 1.3298,-0.203531 1.8342,0 0.50441,0.20353 0.0917,0.37006 -0.9171,0.37006 -1.00881,0 -1.42151,-0.16653 -0.9171,-0.37006 z m 4.44793,-0.01526 c 0.52964,-0.211937 1.16244,-0.185878 1.40624,0.05788 0.2438,0.243794 -0.18958,0.4172 -0.96295,0.385343 -0.85474,-0.03522 -1.02854,-0.209055 -0.44329,-0.443259 z m 5.82357,-0.01658 c 0.90794,-0.17488 2.39363,-0.17488 3.30156,0 0.90793,0.174873 0.16508,0.317954 -1.65078,0.317954 -1.81585,0 -2.5587,-0.143081 -1.65078,-0.317954 z m -7.15337,-3.884331 c -0.80726,-0.521697 -0.31848,-0.700465 1.8342,-0.670876 2.30574,0.03169 2.62019,0.175474 1.46736,0.670876 -1.93045,0.829556 -2.01791,0.829556 -3.30156,0 z m -18.47953,-0.501183 c 0.52965,-0.211938 1.16244,-0.185877 1.40624,0.05788 0.24381,0.243795 -0.18959,0.417199 -0.96295,0.385343 -0.85474,-0.03522 -1.02855,-0.209054 -0.44329,-0.443259 z m 10.23423,-0.01769 c 0.91262,-0.175489 2.23325,-0.168827 2.93471,0.01482 0.70141,0.183633 -0.0455,0.327221 -1.65936,0.319077 -1.61409,-0.0082 -2.18804,-0.158394 -1.27535,-0.333882 z m 13.44218,0.23907 c 0.16815,-0.153904 7.68469,-0.490443 16.70337,-0.747855 32.95664,-0.940657 66.15656,-3.874198 66.13,-5.843246 -0.0315,-2.348109 -1.14248,-2.645007 -4.79239,-1.280944 -4.31051,1.610976 -16.22297,3.45548 -28.94562,4.481905 -10.26247,0.827942 -52.66251,1.881049 -52.09119,1.293805 0.20175,-0.207374 7.79534,-0.584404 16.87461,-0.837838 33.16434,-0.925756 60.45367,-4.077699 65.83557,-7.604076 0.90837,-0.595167 2.0849,-0.915822 2.61462,-0.712571 1.00624,0.38615 3.21733,6.138765 2.59766,6.758459 -0.33617,0.33618 -14.08048,2.021183 -23.72556,2.908663 -13.97292,1.285707 -62.23997,2.534714 -61.20107,1.583698 z m -9.00284,-2.422388 c 0.52964,-0.211938 1.16245,-0.185878 1.40625,0.05788 0.2438,0.243795 -0.18959,0.417199 -0.96296,0.385343 -0.85473,-0.03521 -1.02854,-0.209054 -0.44329,-0.443259 z M 143.49141,21.91176 c -7.32399,-1.892847 -9.76349,-3.262185 -9.76349,-5.480411 0,-2.202857 2.4744,-3.612761 8.95852,-5.104513 11.11907,-2.558089 32.04011,-4.6411061 51.50115,-5.1277406 l 13.27505,-0.331953 -13.20621,0.9899235 c -20.8305,1.5614301 -37.64703,3.2891781 -44.02074,4.5227201 -16.93165,3.276881 -18.99108,5.841646 -6.96633,8.675686 6.80826,1.604593 6.97057,1.561944 8.90611,-2.340186 1.97288,-3.977413 3.61025,-4.957233 10.7141,-6.411459 4.92622,-1.008441 25.72501,-3.1079732 34.48633,-3.4812176 7.78385,-0.3316082 5.05393,0.6743536 -3.30289,1.2170926 -14.66386,0.9523524 -32.32142,3.497249 -36.57664,5.271615 -2.58332,1.077202 -4.52501,3.665482 -5.17033,6.892084 -0.52227,2.611354 -1.24667,2.669432 -8.83463,0.708359 z m 12.24687,-3.646215 c -0.66126,-0.427338 -0.75175,-0.715696 -0.22673,-0.722446 0.4806,-0.0059 1.07785,0.318923 1.32725,0.722446 0.56295,0.910885 0.30896,0.910885 -1.10052,0 z M 205.79872,7.4698052 c 1.10247,-0.1674035 3.08341,-0.1707711 4.40208,-0.00748 1.31867,0.1632876 0.41667,0.300258 -2.00448,0.304374 -2.42114,0.0044 -3.50005,-0.1294796 -2.3976,-0.2968905 z M 362.2689,68.197802 c 2.53133,-0.52359 2.63221,-0.611147 0.73367,-0.637016 -1.21057,-0.01651 -3.68673,0.234373 -5.50259,0.557478 -3.07829,0.547742 -3.12797,0.590809 -0.73368,0.637009 1.41233,0.02722 3.8885,-0.22361 5.5026,-0.557471 z m 17.0832,-2.31891 c 19.01819,-2.916417 31.57511,-6.831386 34.71533,-10.823472 l 1.50882,-1.918138 -2.27045,-2.028608 c -2.88578,-2.578448 -3.53773,-2.554883 -3.14602,0.113735 0.2689,1.832326 -0.13236,2.465998 -2.77294,4.378816 -5.85916,4.24434 -16.09427,7.392585 -33.74593,10.379987 -4.23699,0.717075 -6.94947,1.334613 -6.02768,1.372294 0.92172,0.03772 6.20421,-0.625886 11.73887,-1.474614 z"
     id="path4541"
     inkscape:connector-curvature="0" />
</svg>
